<svg width="680" height="736" viewBox="0 0 680 736" fill="none" xmlns="http://www.w3.org/2000/svg">
<path d="M582.474 23.9624C589.057 13.8657 592.348 8.81745 597.024 5.50934C598.973 4.13077 601.079 2.98968 603.298 2.11028C608.623 0 614.65 0 626.702 0C648.053 0 658.728 0 666.361 5.18651C669.489 7.31233 672.188 10.0106 674.314 13.1391C679.5 20.7718 679.5 31.4471 679.5 52.7976V682C679.5 704.498 679.5 715.748 673.771 723.634C671.92 726.18 669.68 728.42 667.134 730.271C659.248 736 647.998 736 625.5 736H217.918C179.221 736 159.872 736 150.896 725.586C148.08 722.319 146.002 718.482 144.803 714.339C140.981 701.132 151.548 684.924 172.683 652.508L582.474 23.9624Z" fill="url(#paint0_linear_11_112)"/>
<path d="M97.0255 712.038C90.4429 722.134 87.1515 727.183 82.4756 730.491C80.527 731.869 78.4209 733.01 76.2018 733.89C70.8769 736 64.8505 736 52.7975 736C31.447 736 20.7718 736 13.139 730.813C10.0106 728.688 7.31226 725.989 5.18646 722.861C-6.10352e-05 715.228 -6.10352e-05 704.553 -6.10352e-05 683.202L-6.10352e-05 54C-6.10352e-05 31.5016 -6.10352e-05 20.2524 5.72943 12.3664C7.57983 9.81958 9.81952 7.57983 12.3664 5.72949C20.2523 0 31.5015 0 53.9999 0H461.582C500.279 0 519.628 0 528.604 10.4137C531.42 13.6812 533.498 17.5176 534.697 21.6613C538.519 34.8677 527.952 51.0758 506.817 83.4919L97.0255 712.038Z" fill="#747474" fill-opacity="0.1"/>
<defs>
<linearGradient id="paint0_linear_11_112" x1="680.357" y1="15.2145" x2="209.028" y2="1157.27" gradientUnits="userSpaceOnUse">
<stop stop-color="#76BC1E" stop-opacity="0.35"/>
<stop offset="1" stop-color="#76BC1E"/>
</linearGradient>
</defs>
</svg>
