<svg width="24" height="24" viewBox="0 0 24 24" fill="none" xmlns="http://www.w3.org/2000/svg">
<path d="M12 1C5.93457 1 1 5.93457 1 12C1 18.0654 5.93457 23 12 23C18.0654 23 23 18.0654 23 12C23 5.93457 18.0654 1 12 1ZM15.4214 13.4961C13.9565 14.6816 12.5508 15.5342 11.124 16.1025C10.8896 16.1953 10.6445 16.2422 10.4014 16.2422C10.0625 16.2422 9.72607 16.1523 9.42383 15.9746C8.9082 15.6719 8.56836 15.1582 8.49121 14.5645C8.26953 12.8633 8.26953 11.1367 8.49121 9.43555C8.56836 8.8418 8.9082 8.32812 9.42383 8.02539C9.94287 7.71973 10.563 7.67578 11.1245 7.89746C12.5508 8.46582 13.9565 9.31836 15.4214 10.5039C15.874 10.8701 16.1338 11.415 16.1338 12C16.1338 12.585 15.874 13.1299 15.4214 13.4961Z" fill="#1F1F1F"/>
</svg>
