<svg width="70" height="70" viewBox="0 0 70 70" fill="none" xmlns="http://www.w3.org/2000/svg">
<circle cx="35" cy="35" r="35" fill="#76BC1E"/>
<g clip-path="url(#clip0_17_477)">
<path d="M36.1042 24.0853C37.8005 24.0853 39.1756 22.7101 39.1756 21.0138C39.1756 19.3175 37.8005 17.9424 36.1042 17.9424C34.4078 17.9424 33.0327 19.3175 33.0327 21.0138C33.0327 22.7101 34.4078 24.0853 36.1042 24.0853Z" fill="#E9EDF5"/>
<path d="M47.2755 31.6767C46.6001 31.2908 45.7397 31.5255 45.3538 32.201C45.1265 32.5987 45.1159 33.0602 45.2824 33.4516L45.0606 33.8398L42.9486 31.6015L41.2029 26.2474C41.0285 25.7123 40.5554 25.3586 40.0286 25.3097V25.2904H33.2183C33.2022 25.2835 33.1871 25.2754 33.1707 25.269L29.0612 23.6584L28.712 19.6741L29.46 19.6772C29.7159 20.0169 30.1207 20.2382 30.5789 20.2402C31.3569 20.2433 31.9901 19.6153 31.9932 18.8374C31.9963 18.0595 31.3683 17.4263 30.5903 17.4232C30.1322 17.4213 29.7255 17.6394 29.4669 17.977L28.5344 17.9733C28.352 17.3652 27.7628 16.9482 27.1054 17.0052C26.5355 17.0552 26.0786 17.4481 25.9189 17.9627L25.5476 17.9612C25.2917 17.6215 24.8869 17.4001 24.4287 17.3982C23.6509 17.3949 23.0176 18.023 23.0144 18.8009C23.0112 19.5788 23.6393 20.212 24.4172 20.2151C24.8753 20.2169 25.2821 19.9989 25.5407 19.6613L25.9655 19.6629L26.4106 24.7416C26.456 25.259 26.7905 25.706 27.274 25.8954L32.1727 27.8152C32.175 27.8161 32.1774 27.8167 32.1798 27.8176V37.3999L28.7901 51.8144C28.5654 52.7703 29.158 53.7276 30.114 53.9524C31.0704 54.1771 32.0272 53.5842 32.2519 52.6286L35.69 38.0088H36.5185L39.9565 52.6286C40.1813 53.5843 41.1382 54.1771 42.0945 53.9524C43.0505 53.7276 43.6432 52.7703 43.4183 51.8144L40.0286 37.4V31.4682L40.4434 32.7407C40.5059 32.9327 40.6103 33.1084 40.7489 33.2553L43.6424 36.3219L43.3382 36.8544C42.9164 36.9097 42.5244 37.1531 42.2971 37.5509C41.9112 38.2263 42.1459 39.0868 42.8214 39.4727C43.4968 39.8586 44.3573 39.6239 44.7432 38.9484C44.9705 38.5506 44.981 38.0892 44.8145 37.6978L44.989 37.3924C45.4327 37.4852 45.8841 37.3555 46.2089 37.0492C46.7525 36.5361 46.7819 35.6833 46.2797 35.1334L46.7588 34.2949C47.1805 34.2396 47.5725 33.9962 47.7998 33.5984C48.1857 32.923 47.9509 32.0627 47.2755 31.6767Z" fill="#E9EDF5"/>
</g>
<defs>
<clipPath id="clip0_17_477">
<rect width="37" height="37" fill="white" transform="translate(17 17)"/>
</clipPath>
</defs>
</svg>
