<svg width="70" height="70" viewBox="0 0 70 70" fill="none" xmlns="http://www.w3.org/2000/svg">
<circle cx="35" cy="35" r="35" fill="#76BC1E"/>
<path d="M42.1848 36.2242L40.8077 39.2852C40.7194 39.4812 40.5764 39.6475 40.3959 39.7642C40.2154 39.8808 40.005 39.9429 39.7901 39.9429C39.5752 39.9429 39.3648 39.8808 39.1843 39.7642C39.0038 39.6475 38.8608 39.4812 38.7725 39.2852L36.4432 34.1084L35.7874 35.5665C35.6991 35.7624 35.5561 35.9287 35.3756 36.0454C35.1951 36.162 34.9847 36.2241 34.7698 36.2242H20.9305C21.2197 36.6435 21.5453 37.0365 21.9036 37.3986L34.2094 49.7045C34.3132 49.8084 34.4365 49.8907 34.5721 49.9469C34.7077 50.0031 34.8531 50.032 34.9999 50.032C35.1467 50.032 35.292 50.0031 35.4276 49.9469C35.5633 49.8907 35.6865 49.8084 35.7903 49.7045L48.0965 37.3986C48.4548 37.0366 48.7803 36.6436 49.0694 36.2242H42.1848Z" fill="#E9EDF5"/>
<path d="M34.0486 33.9926L35.4257 30.9315C35.514 30.7356 35.657 30.5693 35.8375 30.4526C36.018 30.3359 36.2283 30.2739 36.4433 30.2739C36.6582 30.2739 36.8686 30.3359 37.0491 30.4526C37.2296 30.5693 37.3726 30.7356 37.4608 30.9315L39.7901 36.1084L40.446 34.6503C40.5343 34.4543 40.6773 34.288 40.8578 34.1714C41.0383 34.0547 41.2487 33.9926 41.4636 33.9926H50.182C50.6887 32.4544 50.751 30.8044 50.3617 29.2323C49.9724 27.6603 49.1473 26.23 47.9812 25.1061C44.5677 21.8152 39.0686 22.0682 35.7157 25.4209L34.9999 26.1366L34.2851 25.4217C30.9324 22.0684 25.4327 21.8151 22.0188 25.1063C20.8527 26.2302 20.0276 27.6604 19.6383 29.2324C19.249 30.8044 19.3113 32.4544 19.818 33.9926H34.0486Z" fill="#E9EDF5"/>
</svg>
