<svg width="70" height="70" viewBox="0 0 70 70" fill="none" xmlns="http://www.w3.org/2000/svg">
<circle cx="35" cy="35" r="35" fill="#76BC1E"/>
<path d="M42.2283 36.805C42.3592 37.0341 42.4781 37.2699 42.5846 37.5113C42.6355 37.6296 42.6609 37.7573 42.6589 37.8861C42.6569 38.0148 42.6277 38.1417 42.5731 38.2584C42.5186 38.375 42.4399 38.4788 42.3423 38.5628C42.2448 38.6469 42.1305 38.7093 42.0071 38.746C41.7899 38.8119 41.556 38.7958 41.35 38.7007C41.1439 38.6055 40.9799 38.4381 40.8892 38.23C38.9833 33.9093 33.0201 32.8947 29.8141 36.3874C28.8235 37.4293 28.1946 38.7624 28.0205 40.1895C27.996 40.4159 27.8893 40.6253 27.7205 40.7782C27.5518 40.9311 27.3328 41.0167 27.1051 41.0187C26.9763 41.0192 26.8488 40.9926 26.7309 40.9405C26.613 40.8884 26.5075 40.8121 26.4211 40.7164C26.3348 40.6208 26.2695 40.508 26.2297 40.3855C26.1898 40.2629 26.1763 40.1333 26.1899 40.0052C26.3356 38.8014 26.7337 37.6418 27.3582 36.6024C27.9828 35.563 28.8196 34.667 29.8141 33.9732V29.9621H34.7282C35.3798 29.9621 36.0048 29.7033 36.4656 29.2425C36.9264 28.7817 37.1852 28.1567 37.1852 27.5051V22.9535C37.1844 22.5763 37.0848 22.206 36.8962 21.8794C36.7075 21.5528 36.4366 21.2814 36.1103 21.0922L34.507 20.1647C33.9257 19.8294 33.2502 19.6953 32.5849 19.783C31.9197 19.8708 31.302 20.1755 30.8276 20.65L24.3963 27.0812C23.8313 27.6443 23.3954 28.3234 23.1186 29.0714L19.0092 40.1526C18.8247 40.6504 18.7412 41.1799 18.7636 41.7103C18.786 42.2406 18.9139 42.7612 19.1398 43.2416C19.3657 43.722 19.685 44.1525 20.0792 44.5081C20.4734 44.8637 20.9345 45.1371 21.4355 45.3124C24.6481 46.4304 30.4958 47.7756 34.7282 47.7756C36.8175 47.6348 38.8423 46.8175 40.9259 47.5055C41.7513 47.7229 42.588 47.8951 43.4321 48.0213L43.1004 47.0201C43.0606 46.9018 43.0451 46.7767 43.0548 46.6523C43.0646 46.5279 43.0993 46.4067 43.1571 46.2961C43.2148 46.1855 43.2943 46.0877 43.3908 46.0086C43.4873 45.9295 43.5988 45.8707 43.7186 45.8357C44.1995 45.6912 44.703 46.0054 44.8621 46.4816L45.7848 49.2437H47.3235C47.567 49.2437 47.8006 49.1469 47.9729 48.9747C48.1451 48.8024 48.2419 48.5688 48.2419 48.3253V37.0396C48.2412 36.9153 48.2154 36.7923 48.1661 36.6782C48.1167 36.564 48.0449 36.461 47.9548 36.3753C47.8647 36.2895 47.7582 36.2229 47.6418 36.1793C47.5253 36.1357 47.4012 36.116 47.277 36.1215C45.575 36.1749 43.8831 36.4039 42.2283 36.805V36.805ZM38.0328 42.2657C36.0301 42.8358 33.9371 43.0192 31.8657 42.8063C30.672 42.6569 30.85 40.8681 32.0561 40.9758C33.8923 41.1605 35.7469 40.998 37.523 40.4967C38.696 40.1804 39.1945 41.9114 38.0328 42.2657V42.2657Z" fill="#E9EDF5"/>
</svg>
