<svg width="70" height="70" viewBox="0 0 70 70" fill="none" xmlns="http://www.w3.org/2000/svg">
<circle cx="35" cy="35" r="35" fill="#76BC1E"/>
<path d="M20.2962 30.4646C21.8143 30.4646 23.0451 29.2339 23.0451 27.7157C23.0451 26.1975 21.8143 24.9668 20.2962 24.9668C18.778 24.9668 17.5472 26.1975 17.5472 27.7157C17.5472 29.2339 18.778 30.4646 20.2962 30.4646Z" fill="#E9EDF5"/>
<path d="M53.0098 35.8628C52.4134 35.6333 51.7371 35.7949 51.3086 36.2691C50.9815 36.6314 48.576 39.2945 48.2225 39.6859L30.2969 36.4352C30.0489 35.9578 29.4988 35.6941 28.9542 35.8309C28.4855 35.9487 25.2793 36.7546 24.7717 36.8822L21.6951 33.2794L24.8295 35.8259L25.852 35.5688L25.5234 34.3009L26.705 35.3544L28.7079 34.8509C29.5072 34.65 30.3139 34.9152 30.8426 35.4742L32.0075 35.6855C32.1361 35.4933 32.2103 35.262 32.2077 35.0133C32.2009 34.3572 31.6612 33.8336 31.0073 33.8378L28.6028 33.8631L25.5949 31.1745C25.1839 30.8072 24.6214 30.6598 24.0831 30.7785L19.394 31.8132C18.4713 32.0256 17.8956 32.9459 18.108 33.8685L20.1976 42.9433H18.5449C17.6917 42.9435 17 43.6351 17 44.4883C17 45.3415 17.6917 46.0332 18.5449 46.0332C21.0142 46.0332 51.4756 46.0332 52.4551 46.0332C53.3083 46.0332 54 45.3415 54 44.4883V37.3046C54 36.6654 53.6064 36.0922 53.0098 35.8628ZM26.5928 42.9435L31.1033 39.5918L34.6094 42.9435H26.5928ZM45.2802 42.9435H39.1927C39.189 42.9398 39.1858 42.9358 39.182 42.9321L36.2699 40.1481L30.063 39.0225C30.063 39.0225 28.0511 39.5455 24.527 40.4353C23.7771 40.6238 23.0179 40.2705 22.6608 39.6243L20.2265 35.2182L23.4434 38.9852C23.7367 39.3287 24.199 39.4759 24.6365 39.3659C25.061 39.2592 29.0988 38.2442 29.5335 38.135C29.6867 38.0965 29.825 38.0292 29.9451 37.9413L47.004 41.0348C46.3727 41.7338 46.4141 41.688 45.2802 42.9435Z" fill="#E9EDF5"/>
</svg>
