<svg width="70" height="70" viewBox="0 0 70 70" fill="none" xmlns="http://www.w3.org/2000/svg">
<circle cx="35" cy="35" r="35" fill="#76BC1E"/>
<g clip-path="url(#clip0_17_432)">
<path d="M41.1534 46.0629L37.338 44.5127H33.6618L29.8464 46.0629L29.2991 49.6507C30.2082 52.1859 32.6317 53.9999 35.4799 53.9999C38.3582 53.9999 40.8022 52.1468 41.6882 49.569L41.1534 46.0629Z" fill="#E9EDF5"/>
<path d="M46.6839 50.247L45.6749 43.6324C45.5788 43.0025 45.1582 42.4697 44.5679 42.2298L39.4707 40.1588V32.6056C39.529 32.5219 39.2434 33.0058 43.5616 25.5976C43.8518 25.0997 43.8049 24.4744 43.4435 24.0254L38.2073 17.5189C37.7259 16.9204 36.8504 16.8258 36.2521 17.3074C35.6538 17.7889 35.5591 18.6642 36.0406 19.2626L40.6768 25.0237C40.0551 26.0903 38.2174 29.2432 37.567 30.3589H33.3826C32.7322 29.2432 30.8945 26.0902 30.2728 25.0237L34.909 19.2626C35.3905 18.6642 35.2958 17.7888 34.6975 17.3074C34.0991 16.8257 33.2237 16.9206 32.7423 17.5189L27.5061 24.0255C27.1448 24.4744 27.0979 25.0997 27.3881 25.5977C31.7334 33.0527 31.4236 32.5283 31.489 32.6196V40.1753L26.4318 42.23C25.8415 42.4699 25.4209 43.0027 25.3248 43.6326L24.3158 50.2472C24.1653 51.2345 24.8436 52.1569 25.8308 52.3075C26.818 52.4581 27.7405 51.78 27.8912 50.7926L28.7452 45.1938L33.4237 43.2931H37.5765L42.2549 45.1938L43.1089 50.7926C43.2596 51.7807 44.1828 52.4581 45.1693 52.3075C46.1562 52.1568 46.8345 51.2343 46.6839 50.247Z" fill="#E9EDF5"/>
<path d="M35.4961 29.1025C37.2209 29.1025 38.6191 27.7043 38.6191 25.9795C38.6191 24.2547 37.2209 22.8564 35.4961 22.8564C33.7713 22.8564 32.373 24.2547 32.373 25.9795C32.373 27.7043 33.7713 29.1025 35.4961 29.1025Z" fill="#E9EDF5"/>
</g>
<defs>
<clipPath id="clip0_17_432">
<rect width="37" height="37" fill="white" transform="translate(17 17)"/>
</clipPath>
</defs>
</svg>
