<svg width="70" height="70" viewBox="0 0 70 70" fill="none" xmlns="http://www.w3.org/2000/svg">
<circle cx="35" cy="35" r="35" fill="#76BC1E"/>
<g clip-path="url(#clip0_17_465)">
<path d="M36.2919 26.0076C38.0924 26.0076 39.552 24.548 39.552 22.7474C39.552 20.9469 38.0924 19.4873 36.2919 19.4873C34.4913 19.4873 33.0317 20.9469 33.0317 22.7474C33.0317 24.548 34.4913 26.0076 36.2919 26.0076Z" fill="#E9EDF5"/>
<path d="M52.5072 27.0732H20.0758C19.2513 27.0732 18.5829 27.7416 18.5829 28.5661C18.5829 29.3906 19.2514 30.059 20.0758 30.059H32.1354L32.1183 39.3978L17.9217 47.9714C17.0199 48.516 16.7303 49.6887 17.2749 50.5905C17.8199 51.4928 18.9928 51.7815 19.8939 51.2372C32.0887 43.8427 35.1091 42.0049 35.1091 42.0049C35.1091 42.0049 37.7982 42.0049 43.0736 42.0049V49.5138C43.0736 50.5674 43.9275 51.4215 44.9812 51.4215C46.0347 51.4215 46.8888 50.5675 46.8888 49.5138V40.0974C46.8888 39.0439 46.0348 38.1898 44.9812 38.1898H40.4526L40.4675 30.0591H52.5072C53.3316 30.0591 54 29.3907 54 28.5662C54 27.7417 53.3317 27.0732 52.5072 27.0732Z" fill="#E9EDF5"/>
</g>
<defs>
<clipPath id="clip0_17_465">
<rect width="37" height="37" fill="white" transform="translate(17 17)"/>
</clipPath>
</defs>
</svg>
