<svg width="232" height="25" viewBox="0 0 232 25" fill="none" xmlns="http://www.w3.org/2000/svg">
<path d="M11.9731 0L7.59584 25H0L4.37726 0H11.9731Z" fill="url(#paint0_linear_26_113)"/>
<path d="M41.526 15.5172H33.9731C33.8586 16.1782 33.7013 16.7529 33.501 17.2414C33.3008 17.7011 33.0147 18.0891 32.6427 18.4052C32.2994 18.7213 31.8274 18.9511 31.2266 19.0948C30.6258 19.2385 29.8819 19.3103 28.995 19.3103H24.1886C23.2731 19.3103 22.5436 19.2385 22 19.0948C21.485 18.9224 21.0988 18.6782 20.8413 18.3621C20.5838 18.046 20.4408 17.658 20.4121 17.1983C20.4121 16.7098 20.4694 16.1351 20.5838 15.4741L21.6137 9.52586C21.7282 8.89368 21.8712 8.33333 22.0429 7.84483C22.2432 7.35632 22.5293 6.95402 22.9012 6.63793C23.2731 6.32184 23.7452 6.09195 24.3173 5.94828C24.9181 5.77586 25.6763 5.68966 26.5918 5.68966H31.3982C32.2851 5.68966 33.0004 5.77586 33.5439 5.94828C34.0875 6.09195 34.4881 6.32184 34.7455 6.63793C35.003 6.92529 35.1318 7.31322 35.1318 7.80172C35.1604 8.29023 35.1175 8.85057 35.003 9.48276H42.5559L42.9851 7.19828C43.4142 4.75575 43.028 2.9454 41.8264 1.76724C40.6534 0.589081 38.5077 0 35.3893 0H24.5748C21.4564 0 19.0961 0.589081 17.494 1.76724C15.9204 2.9454 14.9191 4.75575 14.49 7.19828L12.6017 17.8017C12.2012 20.2443 12.5874 22.0546 13.7604 23.2328C14.9334 24.4109 17.0791 25 20.1976 25H31.012C34.1304 25 36.4907 24.4109 38.0929 23.2328C39.695 22.0546 40.6963 20.2443 41.0969 17.8017L41.526 15.5172Z" fill="url(#paint1_linear_26_113)"/>
<path d="M63.7097 5.68966C64.5966 5.68966 65.3118 5.77586 65.8554 5.94828C66.399 6.09195 66.7995 6.32184 67.057 6.63793C67.3145 6.95402 67.4433 7.35632 67.4433 7.84483C67.4719 8.33333 67.4289 8.89368 67.3145 9.52586L66.2846 15.4741C66.1701 16.1351 66.0128 16.7098 65.8125 17.1983C65.6408 17.658 65.3691 18.046 64.9971 18.3621C64.6252 18.6782 64.1388 18.9224 63.538 19.0948C62.9372 19.2385 62.1934 19.3103 61.3065 19.3103H56.5001C55.5846 19.3103 54.855 19.2385 54.3115 19.0948C53.7965 18.9224 53.4103 18.6782 53.1528 18.3621C52.8953 18.046 52.7522 17.658 52.7236 17.1983C52.7236 16.7098 52.7808 16.1351 52.8953 15.4741L53.9252 9.52586C54.0397 8.89368 54.1827 8.33333 54.3544 7.84483C54.5546 7.35632 54.8407 6.95402 55.2127 6.63793C55.5846 6.32184 56.0566 6.09195 56.6288 5.94828C57.2296 5.77586 57.9878 5.68966 58.9033 5.68966H63.7097ZM75.2966 7.19828C75.7257 4.75575 75.3395 2.9454 74.1379 1.76724C72.9649 0.589081 70.8192 0 67.7007 0H56.8863C53.7679 0 51.4076 0.589081 49.8055 1.76724C48.2319 2.9454 47.2306 4.75575 46.8015 7.19828L44.9132 17.8017C44.5127 20.2443 44.8989 22.0546 46.0719 23.2328C47.2449 24.4109 49.3906 25 52.5091 25H63.3235C66.4419 25 68.8022 24.4109 70.4043 23.2328C72.0065 22.0546 73.0078 20.2443 73.4083 17.8017L75.2966 7.19828Z" fill="url(#paint2_linear_26_113)"/>
<path d="M101.3 0H108.853L104.475 25H97.7378L86.0651 10.6466L83.5331 25H75.9802L80.3575 0H87.095L98.8106 14.3103L101.3 0Z" fill="url(#paint3_linear_26_113)"/>
<path d="M159.223 11.1207L156.777 25H137.122C134.004 25 131.858 24.4109 130.685 23.2328C129.512 22.0546 129.126 20.2443 129.527 17.8017L131.415 7.19828C131.844 4.75575 132.845 2.9454 134.419 1.76724C136.021 0.589081 138.381 0 141.5 0H161.154L160.167 5.68966H143.517C142.601 5.68966 141.843 5.77586 141.242 5.94828C140.67 6.09195 140.198 6.32184 139.826 6.63793C139.454 6.95402 139.168 7.35632 138.968 7.84483C138.796 8.33333 138.653 8.89368 138.539 9.52586L137.509 15.4741C137.394 16.1351 137.337 16.7098 137.337 17.1983C137.366 17.658 137.509 18.046 137.766 18.3621C138.024 18.6782 138.41 18.9224 138.925 19.0948C139.468 19.2385 140.198 19.3103 141.113 19.3103H150.211L151.67 11.1207H159.223Z" fill="url(#paint4_linear_26_113)"/>
<path d="M184.711 6.85345L185.913 0H193.466L191.878 9.18104C191.449 11.6236 190.433 13.4339 188.831 14.6121C187.229 15.7902 184.869 16.3793 181.75 16.3793H180.12L178.618 25H171.065L172.567 16.3793H170.936C167.817 16.3793 165.672 15.7902 164.499 14.6121C163.326 13.4339 162.954 11.6236 163.383 9.18104L164.971 0H172.524L171.322 6.85345C171.208 7.51437 171.165 8.08908 171.193 8.57759C171.222 9.03736 171.365 9.42529 171.623 9.74138C171.88 10.0575 172.266 10.3017 172.781 10.4741C173.325 10.6178 174.054 10.6897 174.97 10.6897H179.776C180.663 10.6897 181.393 10.6178 181.965 10.4741C182.566 10.3017 183.052 10.0575 183.424 9.74138C183.796 9.42529 184.068 9.03736 184.239 8.57759C184.44 8.08908 184.597 7.51437 184.711 6.85345Z" fill="url(#paint5_linear_26_113)"/>
<path d="M204.749 0H197.282L192.905 25H200.458L202.775 11.8534L209.899 24.0517H210.929L222.387 11.8534L220.07 25H227.623L232 0H224.533L212.345 13.4052L204.749 0Z" fill="url(#paint6_linear_26_113)"/>
<defs>
<linearGradient id="paint0_linear_26_113" x1="122" y1="-13" x2="120.5" y2="40.5" gradientUnits="userSpaceOnUse">
<stop stop-color="#9BED34"/>
<stop offset="1" stop-color="#76BC1E" stop-opacity="0.35"/>
</linearGradient>
<linearGradient id="paint1_linear_26_113" x1="122" y1="-13" x2="120.5" y2="40.5" gradientUnits="userSpaceOnUse">
<stop stop-color="#9BED34"/>
<stop offset="1" stop-color="#76BC1E" stop-opacity="0.35"/>
</linearGradient>
<linearGradient id="paint2_linear_26_113" x1="122" y1="-13" x2="120.5" y2="40.5" gradientUnits="userSpaceOnUse">
<stop stop-color="#9BED34"/>
<stop offset="1" stop-color="#76BC1E" stop-opacity="0.35"/>
</linearGradient>
<linearGradient id="paint3_linear_26_113" x1="122" y1="-13" x2="120.5" y2="40.5" gradientUnits="userSpaceOnUse">
<stop stop-color="#9BED34"/>
<stop offset="1" stop-color="#76BC1E" stop-opacity="0.35"/>
</linearGradient>
<linearGradient id="paint4_linear_26_113" x1="122" y1="-13" x2="120.5" y2="40.5" gradientUnits="userSpaceOnUse">
<stop stop-color="#9BED34"/>
<stop offset="1" stop-color="#76BC1E" stop-opacity="0.35"/>
</linearGradient>
<linearGradient id="paint5_linear_26_113" x1="122" y1="-13" x2="120.5" y2="40.5" gradientUnits="userSpaceOnUse">
<stop stop-color="#9BED34"/>
<stop offset="1" stop-color="#76BC1E" stop-opacity="0.35"/>
</linearGradient>
<linearGradient id="paint6_linear_26_113" x1="122" y1="-13" x2="120.5" y2="40.5" gradientUnits="userSpaceOnUse">
<stop stop-color="#9BED34"/>
<stop offset="1" stop-color="#76BC1E" stop-opacity="0.35"/>
</linearGradient>
</defs>
</svg>
