<svg width="232" height="26" viewBox="0 0 232 26" fill="none" xmlns="http://www.w3.org/2000/svg">
<path d="M11.9731 0.5L7.59584 25.5H0L4.37726 0.5H11.9731Z" fill="#E9EDF5"/>
<path d="M41.526 16.0172H33.9731C33.8586 16.6782 33.7013 17.2529 33.501 17.7414C33.3008 18.2011 33.0147 18.5891 32.6427 18.9052C32.2994 19.2213 31.8274 19.4511 31.2266 19.5948C30.6258 19.7385 29.8819 19.8103 28.995 19.8103H24.1886C23.2731 19.8103 22.5436 19.7385 22 19.5948C21.485 19.4224 21.0988 19.1782 20.8413 18.8621C20.5838 18.546 20.4408 18.158 20.4121 17.6983C20.4121 17.2098 20.4694 16.6351 20.5838 15.9741L21.6137 10.0259C21.7282 9.39368 21.8712 8.83333 22.0429 8.34483C22.2432 7.85632 22.5293 7.45402 22.9012 7.13793C23.2731 6.82184 23.7452 6.59195 24.3173 6.44828C24.9181 6.27586 25.6763 6.18966 26.5918 6.18966H31.3982C32.2851 6.18966 33.0004 6.27586 33.5439 6.44828C34.0875 6.59195 34.4881 6.82184 34.7455 7.13793C35.003 7.42529 35.1318 7.81322 35.1318 8.30172C35.1604 8.79023 35.1175 9.35057 35.003 9.98276H42.5559L42.9851 7.69828C43.4142 5.25575 43.028 3.4454 41.8264 2.26724C40.6534 1.08908 38.5077 0.5 35.3893 0.5H24.5748C21.4564 0.5 19.0961 1.08908 17.494 2.26724C15.9204 3.4454 14.9191 5.25575 14.49 7.69828L12.6017 18.3017C12.2012 20.7443 12.5874 22.5546 13.7604 23.7328C14.9334 24.9109 17.0791 25.5 20.1976 25.5H31.012C34.1304 25.5 36.4907 24.9109 38.0929 23.7328C39.695 22.5546 40.6963 20.7443 41.0969 18.3017L41.526 16.0172Z" fill="#E9EDF5"/>
<path d="M63.7097 6.18966C64.5966 6.18966 65.3118 6.27586 65.8554 6.44828C66.399 6.59195 66.7995 6.82184 67.057 7.13793C67.3145 7.45402 67.4433 7.85632 67.4433 8.34483C67.4719 8.83333 67.4289 9.39368 67.3145 10.0259L66.2846 15.9741C66.1701 16.6351 66.0128 17.2098 65.8125 17.6983C65.6408 18.158 65.3691 18.546 64.9971 18.8621C64.6252 19.1782 64.1388 19.4224 63.538 19.5948C62.9372 19.7385 62.1934 19.8103 61.3065 19.8103H56.5001C55.5846 19.8103 54.855 19.7385 54.3115 19.5948C53.7965 19.4224 53.4103 19.1782 53.1528 18.8621C52.8953 18.546 52.7522 18.158 52.7236 17.6983C52.7236 17.2098 52.7808 16.6351 52.8953 15.9741L53.9252 10.0259C54.0397 9.39368 54.1827 8.83333 54.3544 8.34483C54.5546 7.85632 54.8407 7.45402 55.2127 7.13793C55.5846 6.82184 56.0566 6.59195 56.6288 6.44828C57.2296 6.27586 57.9878 6.18966 58.9033 6.18966H63.7097ZM75.2966 7.69828C75.7257 5.25575 75.3395 3.4454 74.1379 2.26724C72.9649 1.08908 70.8192 0.5 67.7007 0.5H56.8863C53.7679 0.5 51.4076 1.08908 49.8055 2.26724C48.2319 3.4454 47.2306 5.25575 46.8015 7.69828L44.9132 18.3017C44.5127 20.7443 44.8989 22.5546 46.0719 23.7328C47.2449 24.9109 49.3906 25.5 52.5091 25.5H63.3235C66.4419 25.5 68.8022 24.9109 70.4043 23.7328C72.0065 22.5546 73.0078 20.7443 73.4083 18.3017L75.2966 7.69828Z" fill="#E9EDF5"/>
<path d="M101.3 0.5H108.853L104.475 25.5H97.7378L86.0651 11.1466L83.5331 25.5H75.9802L80.3575 0.5H87.095L98.8106 14.8103L101.3 0.5Z" fill="#E9EDF5"/>
<path d="M159.223 11.6207L156.777 25.5H137.122C134.004 25.5 131.858 24.9109 130.685 23.7328C129.512 22.5546 129.126 20.7443 129.527 18.3017L131.415 7.69828C131.844 5.25575 132.845 3.4454 134.419 2.26724C136.021 1.08908 138.381 0.5 141.5 0.5H161.154L160.167 6.18966H143.517C142.601 6.18966 141.843 6.27586 141.242 6.44828C140.67 6.59195 140.198 6.82184 139.826 7.13793C139.454 7.45402 139.168 7.85632 138.968 8.34483C138.796 8.83333 138.653 9.39368 138.539 10.0259L137.509 15.9741C137.394 16.6351 137.337 17.2098 137.337 17.6983C137.366 18.158 137.509 18.546 137.766 18.8621C138.024 19.1782 138.41 19.4224 138.925 19.5948C139.468 19.7385 140.198 19.8103 141.113 19.8103H150.211L151.67 11.6207H159.223Z" fill="#E9EDF5"/>
<path d="M184.711 7.35345L185.913 0.5H193.466L191.878 9.68104C191.449 12.1236 190.433 13.9339 188.831 15.1121C187.229 16.2902 184.869 16.8793 181.75 16.8793H180.12L178.618 25.5H171.065L172.567 16.8793H170.936C167.817 16.8793 165.672 16.2902 164.499 15.1121C163.326 13.9339 162.954 12.1236 163.383 9.68104L164.971 0.5H172.524L171.322 7.35345C171.208 8.01437 171.165 8.58908 171.193 9.07759C171.222 9.53736 171.365 9.92529 171.623 10.2414C171.88 10.5575 172.266 10.8017 172.781 10.9741C173.325 11.1178 174.054 11.1897 174.97 11.1897H179.776C180.663 11.1897 181.393 11.1178 181.965 10.9741C182.566 10.8017 183.052 10.5575 183.424 10.2414C183.796 9.92529 184.068 9.53736 184.239 9.07759C184.44 8.58908 184.597 8.01437 184.711 7.35345Z" fill="#E9EDF5"/>
<path d="M204.749 0.5H197.282L192.905 25.5H200.458L202.775 12.3534L209.899 24.5517H210.929L222.387 12.3534L220.07 25.5H227.623L232 0.5H224.533L212.345 13.9052L204.749 0.5Z" fill="#E9EDF5"/>
</svg>
